<svg width="229" height="229" viewBox="0 0 229 229" fill="none" xmlns="http://www.w3.org/2000/svg">
<path d="M228.994 114.503C228.994 125.571 220.024 134.541 208.95 134.541H134.533V208.961C134.533 220.033 125.56 229.003 114.493 229C108.958 229 103.949 226.76 100.326 223.135C96.6983 219.505 94.4557 214.498 94.4582 208.967L94.4552 134.538H20.0296C14.4986 134.538 9.49304 132.299 5.86254 128.668C2.24102 125.047 7.47951e-07 120.037 7.47951e-07 114.503C-0.0029906 103.436 8.96706 94.4642 20.04 94.4642H94.4582V20.043C94.4582 8.97304 103.433 0 114.501 0C125.565 0.00299135 134.532 8.96706 134.538 20.0355V94.4642H208.964C220.03 94.4702 228.989 103.436 228.994 114.503Z" fill="#BFC0C0"/>
</svg>
